<svg class="w-10 h-10" viewBox="0 0 77 76" fill="none" xmlns="http://www.w3.org/2000/svg">
  <path fill-rule="evenodd" clip-rule="evenodd"
    d="M41.7493 32.4404L38.2121 0.59082L34.8886 30.5155L25.5582 9.79984L34.5645 32.3709L7.56837 15.3481L29.112 36.8232L6.82637 31.1326L29.8865 38.1029L0 48.5073L30.3935 45.0337L11.8259 59.0784L31.6529 45.3955L21.2061 75.0989L37.3899 49.2513L36.792 72.5937L38.4707 48.3512L55.2181 75.0989L45.1967 46.605L62.9247 61.501L44.8241 44.8958L76.4242 48.5073L48.1515 38.6647L70.5456 34.1534L46.1617 37.97L68.8558 15.3481L43.5691 31.293L53.9159 11.1442L41.7985 32.4095L41.7493 32.4404Z"
    fill="currentColor"></path>
  <path fill-rule="evenodd" clip-rule="evenodd"
    d="M41.7493 32.4404L38.2121 0.59082L34.8886 30.5155L25.5582 9.79984L34.5645 32.3709L7.56837 15.3481L29.112 36.8232L6.82637 31.1326L29.8865 38.1029L0 48.5073L30.3935 45.0337L11.8259 59.0784L31.6529 45.3955L21.2061 75.0989L37.3899 49.2513L36.792 72.5937L38.4707 48.3512L55.2181 75.0989L45.1967 46.605L62.9247 61.501L44.8241 44.8958L76.4242 48.5073L48.1515 38.6647L70.5456 34.1534L46.1617 37.97L68.8558 15.3481L43.5691 31.293L53.9159 11.1442L41.7985 32.4095L41.7493 32.4404Z"
    fill="currentColor" fill-opacity="0.2"></path>
</svg>